<?xml version="1.0" standalone="no"?>
<!DOCTYPE svg PUBLIC "-//W3C//DTD SVG 1.1//EN" "http://www.w3.org/Graphics/SVG/1.1/DTD/svg11.dtd" >
<!--
2013-9-30: Created.
-->
<svg>
<metadata>
Created by iconfont
</metadata>
<defs>

<font id="iconfont" horiz-adv-x="1024" >
  <font-face
    font-family="iconfont"
    font-weight="500"
    font-stretch="normal"
    units-per-em="1024"
    ascent="896"
    descent="-128"
  />
    <missing-glyph />
    
    <glyph glyph-name="wechat" unicode="&#58896;" d="M326.4 294.4l-96 204.8v6.4c0 6.4 0 6.4 6.4 12.8 6.4 0 6.4 6.4 12.8 6.4s6.4 0 12.8-6.4l108.8-76.8c12.8-6.4 25.6-6.4 44.8-6.4l518.4 217.6C838.4 761.6 684.8 832 512 832 230.4 832 0 646.4 0 422.4c0-121.6 70.4-236.8 179.2-307.2 6.4-6.4 12.8-19.2 12.8-25.6v-12.8l-25.6-83.2v-12.8c0-6.4 6.4-19.2 19.2-19.2h12.8l115.2 64c6.4 6.4 19.2 6.4 25.6 6.4H352c57.6-12.8 108.8-25.6 166.4-25.6 281.6 0 512 185.6 512 409.6 0 64-19.2 134.4-57.6 192L377.6 288h-6.4c-12.8-12.8-32-6.4-44.8 6.4z"  horiz-adv-x="1030" />

    
    <glyph glyph-name="arrow" unicode="&#58897;" d="M20.48 650.24h983.04L512 117.76z"  horiz-adv-x="1024" />

    
    <glyph glyph-name="bt" unicode="&#58898;" d="M721.067 405.333C708.267 512 618.667 593.066 512 593.066s-196.267-81.067-209.067-187.733H8.533v-42.667h294.4c12.8-106.667 98.133-187.733 209.067-187.733S708.267 256 721.067 362.666h294.4v42.667h-294.4z m-85.334-42.666C627.2 302.934 576 256 512 256s-115.2 46.933-123.733 106.667V384v21.333C396.8 465.066 448 512 512 512s115.2-46.933 123.733-106.667v-42.666z"  horiz-adv-x="1024" />

    
    <glyph glyph-name="jcyy" unicode="&#58899;" d="M881.778 867.556H654.222c-56.889 0-102.4-51.2-102.4-108.089v-233.244c0-56.889 45.511-108.089 102.4-108.089h227.556c56.889 0 102.4 51.2 102.4 108.089V759.467c0 56.889-45.511 108.089-102.4 108.089zM881.778 349.867H654.222c-56.889 0-102.4-45.511-102.4-108.089v-233.244c0-56.889 45.511-108.089 102.4-108.089h227.556c56.889 0 102.4 45.511 102.4 108.089V236.09c0 62.578-45.511 113.778-102.4 113.778zM369.778 867.556H142.222c-56.889 0-102.4-51.2-102.4-108.089v-233.244c0-56.889 45.511-108.089 102.4-108.089h227.556c56.889 0 102.4 51.2 102.4 108.089V759.467c5.689 56.889-39.822 108.089-102.4 108.089zM369.778 349.867H142.222c-56.889 0-102.4-45.511-102.4-108.089v-233.244c0-62.578 45.511-108.089 102.4-108.089h227.556c56.889 0 102.4 51.2 102.4 108.089V241.778c5.689 56.889-39.822 108.089-102.4 108.089z"  horiz-adv-x="1024" />

    
    <glyph glyph-name="yezh" unicode="&#58900;" d="M0 781.553v-795.106C0-73.788 48.188-128 114.447-128h795.106C969.788-128 1024-79.812 1024-13.553V781.553C1024 841.788 975.812 896 909.553 896H114.447C48.188 896 0 847.812 0 781.553z m680.659-259.012c0-96.376-78.306-168.659-168.659-168.659-96.376 0-168.659 78.306-168.659 168.659 0 96.376 78.306 168.659 168.659 168.659 96.376 6.024 168.659-72.282 168.659-168.659z m-512-421.647c0 114.447 228.894 174.682 343.341 174.682s343.341-60.235 343.341-174.682v-54.212H174.682v54.212z"  horiz-adv-x="1024" />

    
    <glyph glyph-name="help" unicode="&#58901;" d="M568.944 401.067c0 17.067-5.689 28.444-17.067 34.133-11.378 11.378-22.756 17.067-39.822 17.067s-28.444-5.689-39.822-17.067c-11.378-11.378-17.067-22.756-17.067-34.133v-244.622c0-17.067 5.689-28.444 17.067-34.133 11.378-11.378 22.756-17.067 39.822-17.067s28.444 5.689 39.822 17.067 17.067 22.756 17.067 34.133V401.067z m-56.888 250.311c-17.067 0-34.133-5.689-45.511-17.067-17.067-11.378-22.756-28.444-22.756-45.511s5.689-34.133 17.067-45.511 28.444-17.067 45.511-17.067 34.133 5.689 45.511 17.067 17.067 28.444 17.067 45.511-5.689 34.133-17.067 45.511c-5.689 11.378-22.756 17.067-39.822 17.067z m0-739.556c-62.578 0-125.156 11.378-182.044 34.133s-108.089 56.889-147.911 102.4c-45.511 45.511-73.956 91.022-102.4 147.911-22.756 56.889-34.133 119.467-34.133 182.044s11.378 125.156 34.133 182.044 56.889 108.089 102.4 147.911c45.511 45.511 91.022 73.956 147.911 102.4 56.889 22.756 119.467 34.133 182.044 34.133S637.212 833.42 694.1 810.665s108.089-56.889 147.911-102.4c45.511-45.511 73.956-91.022 102.4-147.911 22.756-56.889 34.133-119.467 34.133-182.044s-11.378-125.156-34.133-182.044-56.889-108.089-102.4-147.911C796.5 2.844 750.989-25.601 694.1-54.045c-56.889-22.756-119.467-34.133-182.044-34.133z"  horiz-adv-x="1024" />

    
    <glyph glyph-name="zh" unicode="&#58902;" d="M369.4 254.887c-117.983 51.2-202.574 169.183-202.574 307.2C166.826 746.852 315.974 896 500.739 896s333.913-149.148 333.913-333.913c0-182.539-149.148-331.687-331.687-333.913-207.026 0-389.565-135.791-447.443-333.913-4.452-11.13-15.583-17.809-26.713-15.583S11-105.739 13.226-94.609c51.2 173.635 186.991 304.974 356.174 349.496z m131.339 17.809c160.278 0 289.391 129.113 289.391 289.391S661.017 851.478 500.739 851.478c-160.278 0-289.391-129.113-289.391-289.391s129.113-289.391 289.391-289.391z m491.965-365.079c4.452-11.13-2.226-24.487-15.583-26.713s-24.487 2.226-26.713 15.583c-35.617 122.435-120.209 222.609-233.739 280.487-11.13 6.678-15.583 20.035-8.904 28.939 6.678 11.13 20.035 15.583 28.939 8.904 124.661-62.33 215.93-173.635 256-307.2z m-420.73 888.209c11.13-4.452 17.809-15.583 15.583-26.713-4.452-11.13-15.583-17.809-26.713-15.583-13.357 4.452-26.713 6.678-40.07 6.678s-22.261 11.13-20.035 24.487c0 13.357 11.13 22.261 24.487 20.035 13.357 0 31.165-2.226 46.748-8.904z m173.635-233.739c0-13.357-8.904-22.261-22.261-22.261s-22.261 8.904-22.261 22.261c0 62.33-26.713 117.983-73.461 155.826-8.904 6.678-11.13 22.261-2.226 31.165 6.678 8.904 22.261 11.13 31.165 2.226 55.652-44.522 89.043-113.53 89.043-189.217z"  horiz-adv-x="1024" />

    
    <glyph glyph-name="jh" unicode="&#58903;" d="M576 448V576c0 38.4-25.6 64-64 64s-64-25.6-64-64v-128H320c-38.4 0-64-25.6-64-64s25.6-64 64-64h128v-128c0-38.4 25.6-64 64-64s64 25.6 64 64V320h128c38.4 0 64 25.6 64 64s-25.6 64-64 64H576z m-64-576C230.4-128 0 102.4 0 384S230.4 896 512 896s512-230.4 512-512-230.4-512-512-512z"  horiz-adv-x="1024" />

    
    <glyph glyph-name="jytj" unicode="&#58904;" d="M432.356 543.289h164.978c28.444 0 51.2-22.756 51.2-51.2v-483.556c0-28.444-22.756-51.2-51.2-51.2H432.356c-28.444 0-51.2 22.756-51.2 51.2V486.4c-5.689 28.444 22.756 56.889 51.2 56.889zM779.378 816.356h164.978c28.444 0 51.2-22.756 51.2-51.2v-750.933c0-28.444-22.756-51.2-51.2-51.2H779.378c-28.444 0-51.2 22.756-51.2 51.2V759.467c0 28.444 22.756 56.889 51.2 56.889zM79.644 401.067h164.978c28.444 0 51.2-22.756 51.2-51.2v-341.333c0-28.444-22.756-51.2-51.2-51.2H79.644c-28.444 0-51.2 22.756-51.2 51.2V349.867c0 22.756 22.756 51.2 51.2 51.2z"  horiz-adv-x="1024" />

    
    <glyph glyph-name="aq" unicode="&#58905;" d="M958.845197 619.445641c4.982845-401.128466 7.474766-518.228805-368.739478-722.530421-27.406144-17.440455-54.812288-24.91522-77.235587-24.91522-24.91522 0-49.829443 7.474766-79.727509 24.91522C59.420301 103.708757 61.911225 248.214243 61.911225 634.394175c2.491921 44.846599 2.491921 94.676042 2.491921 146.997407 0 14.948534 9.965689 24.91522 22.423299 29.898065h2.491922c62.287054 17.440455 127.066028 34.88091 194.335926 49.829443C350.924191 878.559545 428.160776 886.034311 510.379208 891.017155h4.983843c159.455017-19.931378 281.537203-42.355675 416.077997-82.219429h2.491921c14.948534-2.491921 22.423299-17.440455 22.423299-29.898065 0-57.304209 2.491921-109.625574 2.491921-159.455017zM560.207654-43.288649c336.350489 184.370237 336.350489 276.554359 331.367644 662.73429-2.491921 39.863754-2.491921 79.727508-2.491921 124.574108 0 7.474766-4.982845 14.948534-12.45761 14.948533-114.608418 32.388989-224.232994 54.812288-363.756633 69.76182h-2.491921c-74.744664-4.982845-146.997407-14.948534-211.776381-27.406144-49.829443-9.965689-97.167963-22.423299-142.014562-34.88091-14.948534-4.982845-24.91522-19.931378-27.406144-34.88091v-97.167963c-4.982845-386.179932-4.982845-488.33074 333.858567-677.683822 22.423299-12.45761 34.88091-17.440455 47.33852-17.440455 14.948534 0 29.898065 4.982845 49.829444 17.440455 0-2.491921 0 0 0 0z m-87.201276 361.264711l-122.082187 129.556952c-14.948534 14.948534-37.371833 17.440455-54.812288 2.491921-14.948534-14.948534-14.948534-39.863754 0-54.812288l146.997407-156.963096c2.491921-2.491921 4.982845-4.982845 7.474766-4.982844s2.491921-2.491921 4.982844-2.491921c4.982845-2.491921 9.965689-2.491921 14.948534-2.491921s9.965689 2.491921 14.948534 2.491921c2.491921 0 2.491921 2.491921 4.982844 2.491921 2.491921 2.491921 7.474766 2.491921 9.96569 4.982844l301.469579 313.92719c14.948534 14.948534 14.948534 39.863754 0 54.812288-14.948534 17.440455-37.371833 14.948534-52.321365 0L473.006378 317.97706z"  horiz-adv-x="1024" />

    
    <glyph glyph-name="cw" unicode="&#58906;" d="M768 187.733L708.267 128 512 324.267 315.733 128 256 187.733 452.267 384 256 580.267 315.733 640 512 443.733 708.267 640 768 580.267 571.733 384 768 187.733zM512 896C230.4 896 0 665.6 0 384s230.4-512 512-512 512 230.4 512 512S793.6 896 512 896z"  horiz-adv-x="1024" />

    
    <glyph glyph-name="xyk" unicode="&#58907;" d="M1250.743 896H65.829C29.258 896 0 874.057 0 837.486v-124.343C0 698.514 7.314 691.2 21.943 691.2h1272.686c14.629 0 21.943 7.314 21.943 21.943V837.486c0 36.571-29.257 58.514-65.829 58.514zM1280 588.8H36.571C14.628 588.8 0 574.171 0 552.229v-614.4C0-98.742 29.257-128 65.829-128h1192.229c36.571 0 65.829 29.257 65.829 65.829v614.4c-7.314 21.943-21.943 36.571-43.886 36.571zM102.4 318.171c7.314 7.314 7.314 7.314 14.629 7.314h204.8c14.629 0 21.943-14.629 21.943-29.257s-7.314-21.943-21.943-21.943h-204.8c-14.629 0-21.943 14.629-21.943 29.257 0 0 0 7.314 7.314 14.629zM636.343 76.8H117.029c-14.629 0-21.943 14.629-21.943 29.257 0 7.314 0 14.629 7.314 21.943s7.314 7.314 14.629 7.314h519.314c14.629 0 21.943-14.629 21.943-29.257S643.657 76.8 636.343 76.8z m533.943 7.314h-131.657c-29.257 0-51.2 21.943-51.2 51.2 0 14.629 7.314 29.257 14.629 36.571s21.943 14.629 36.571 14.629h131.657c29.257 0 51.2-21.943 51.2-51.2-7.314-29.257-29.257-51.2-51.2-51.2z"  horiz-adv-x="1323" />

    
    <glyph glyph-name="sjtj" unicode="&#58908;" d="M466.489-99.556c119.467 0 233.244 51.2 312.889 130.844L466.489 344.177V782.221c-244.622 0-438.044-199.111-438.044-438.044s199.111-443.733 438.044-443.733z m62.578 500.623h466.489c0 256-210.489 466.489-466.489 466.489v-466.489z m22.755-56.889l312.889-307.2c79.644 79.644 125.156 187.733 125.156 307.2H551.823z"  horiz-adv-x="1297" />

    
    <glyph glyph-name="v-gxfw" unicode="&#58909;" d="M656.565 251.48199999999997l246.965 96.376 84.329 30.118v-319.247c0-24.094-12.047-42.165-36.141-54.212L668.612-103.90700000000004c-42.165-18.071-90.353-18.071-132.518 0L246.965 4.517000000000053c-30.118 18.071-42.165 42.165-42.165 66.259v307.2l90.353-36.141 222.871-96.376c48.188-18.071 96.376-6.024 138.541 6.024zM644.518 877.929l505.976-216.847c48.188-18.071 48.188-84.329 0-108.424l-42.165-18.071v-325.271c0-18.071-18.071-36.141-36.141-36.141h-12.047c-18.071 0-36.141 18.071-36.141 36.141V504.469l-12.047-6.024-373.459-168.659c-42.165-18.071-90.353-18.071-138.541 0L54.212 546.633c-48.188 18.071-48.188 90.353 0 108.424L499.953 871.904C554.165 895.998 602.353 895.998 644.518 877.928z"  horiz-adv-x="1205" />

    
    <glyph glyph-name="khlb" unicode="&#58910;" d="M768 628.622c0-147.669-114.615-267.378-256-267.378S256 480.953 256 628.622C256 776.291 370.615 896 512 896s256-119.709 256-267.378zM512 236.089c-170.667 0-512-96.711-512-278.756V-128h1024v91.022c0 176.356-341.333 273.067-512 273.067zM927.289 640h170.667c22.756 0 39.822 17.067 39.822 39.822s-17.067 39.822-39.822 39.822H927.289c-22.756 0-39.822-17.067-39.822-39.822S904.534 640 927.289 640zM1097.956 531.911H978.489c-22.756 0-39.822-17.067-39.822-39.822s17.067-39.822 39.822-39.822h119.467c22.756 0 39.822 17.067 39.822 39.822s-17.067 39.822-39.822 39.822zM1097.956 349.867h-56.889c-22.756 0-39.822-17.067-39.822-39.822s17.067-39.822 39.822-39.822h56.889c22.756 0 39.822 17.067 39.822 39.822 0 17.067-17.067 39.822-39.822 39.822z"  horiz-adv-x="1138" />

    
    <glyph glyph-name="cx" unicode="&#58911;" d="M1036.047 4.518L837.271 203.294c42.165 72.282 66.259 150.588 66.259 240.941C903.53 691.2 698.73 896 451.765 896S0 691.2 0 444.235 204.8-7.53 451.765-7.53c120.471 0 228.894 48.188 307.2 120.471l192.753-192.753c24.094-24.094 60.235-24.094 84.329 0s24.094 60.235 0 84.329zM530.071 673.129c-6.024 6.024-12.047 6.024-18.071 6.024-12.047 6.024-24.094 6.024-42.165 6.024s-30.118 0-48.188-6.024-42.165-12.047-60.235-24.094c-48.188-24.094-84.329-60.235-108.424-108.424-18.071-30.118-24.094-66.259-24.094-102.4v-36.141c0-24.094-18.071-48.188-42.165-54.212-24.094 0-48.188 18.071-54.212 42.165-6.024 12.047-6.024 30.118-6.024 48.188 0 54.212 12.047 102.4 30.118 144.565 30.118 66.259 84.329 120.471 150.588 156.612 24.094 12.047 54.212 24.094 84.329 30.118 24.094 6.024 42.165 6.024 66.259 6.024 18.071 0 42.165 0 60.235-6.024 12.047 0 18.071-6.024 30.118-6.024 24.094-6.024 36.141-36.141 42.165-60.235-6.024-30.118-36.141-42.165-60.235-36.141z"  horiz-adv-x="1084" />

    
    <glyph glyph-name="user" unicode="&#58912;" d="M859.022 2.844c28.444 0 51.2-22.756 51.2-45.511 5.689-28.444-17.067-51.2-39.822-56.889H221.866c-22.756 0-45.511 17.067-51.2 34.133-5.689 22.756 0 45.511 17.067 62.578 11.378 5.689 22.756 11.378 34.133 11.378h637.156zM1075.2 622.933s0-5.689 5.689-11.378v-22.756c-11.378-39.822-28.444-56.889-68.267-62.578 0-5.689-5.689-11.378-5.689-11.378-39.822-136.533-56.889-278.756-96.711-415.289-5.689-17.067-11.378-22.756-28.444-22.756H199.111c-17.067 0-22.756 5.689-28.444 22.756-34.133 113.778-45.511 227.556-73.956 341.333-11.378 28.444-17.067 56.889-28.444 85.333-28.444 0-45.511 11.378-62.578 39.822 0 5.689 0 17.067-5.689 22.756v22.756l5.689 11.378c11.378 28.444 28.444 45.511 56.889 51.2 28.444 0 56.889-17.067 68.267-39.822 11.378-28.444 11.378-56.889-11.378-79.644-5.689-5.689-5.689-5.689-5.689-11.378 51.2-34.133 85.333-68.267 136.533-96.711 17.067-11.378 39.822-22.756 56.889-39.822 11.378-5.689 22.756-5.689 28.444 5.689C398.222 526.222 455.111 640 517.688 748.088c-28.444 22.756-45.511 39.822-51.2 73.956 0 22.756 5.689 39.822 22.756 56.889C506.311 890.311 523.377 896 546.133 896s39.822-11.378 51.2-28.444c28.444-39.822 17.067-79.644-28.444-113.778 17.067-28.444 28.444-56.889 45.511-85.333 45.511-79.644 85.333-164.978 130.844-244.622 11.378-17.067 17.067-22.756 34.133-11.378 68.267 39.822 113.778 85.333 182.044 125.156 5.689 0 5.689 5.689 11.378 5.689-11.378 17.067-22.756 28.444-22.756 51.2 0 39.822 22.756 68.267 56.889 73.956 34.133 11.378 62.578-11.378 68.267-45.511z"  horiz-adv-x="1081" />

    
    <glyph glyph-name="mjgl" unicode="&#58913;" d="M192.753 528.565v-307.2c0-30.118 24.094-60.235 54.212-60.235s48.188 24.094 54.212 60.235v307.2c0 30.118-24.094 60.235-54.212 60.235s-54.212-24.094-54.212-60.235z m710.776-114.447c-168.659 0-301.176-132.518-301.176-301.176 0-96.376 42.165-186.729 120.471-240.941H60.236c-36.141 0-60.235 24.094-60.235 60.235V835.765C0.001 871.906 24.095 896 60.236 896H903.53c36.141 0 60.235-24.094 60.235-60.235v-421.647H903.53z m0-90.353c114.447 0 210.824-96.376 210.824-210.824s-96.376-210.824-210.824-210.824c-114.447 0-210.824 96.376-210.824 210.824s96.376 210.824 210.824 210.824z m84.33-174.683H813.177c-18.071 0-36.141-18.071-30.118-42.165 0-18.071 12.047-36.141 30.118-36.141h174.682c18.071 0 36.141 18.071 36.141 42.165s-18.071 42.165-36.141 36.141z"  horiz-adv-x="1144" />

    
    <glyph glyph-name="setting" unicode="&#58914;" d="M511.9935 196.267c-102.4 0-187.733 85.333-187.733 187.733s85.333 187.733 187.733 187.733S699.7265 486.4 699.7265 384s-85.333-187.733-187.733-187.733z m472.177 250.311c-5.689 22.756-22.756 39.822-45.511 45.511l-11.378 5.689c-34.133 11.378-68.267 34.133-91.022 68.267s-22.756 73.956-17.067 113.778l5.689 11.378c5.689 17.067 0 45.511-17.067 62.578 0 0-17.067 11.378-56.889 34.133s-56.889 28.444-56.889 28.444c-22.756 5.689-45.511 0-62.578-17.067l-11.378-11.378c-28.444-22.756-68.267-39.822-108.089-39.822s-79.644 17.067-108.089 39.822l-5.689 17.067c-17.067 11.378-45.511 22.756-62.578 11.378 0 0-17.067-5.689-56.889-28.444s-56.889-34.133-56.889-34.133c-17.067-17.067-28.444-39.822-22.756-62.578l5.689-17.067c11.378-34.133 5.689-73.956-17.067-113.778-22.756-28.444-51.2-51.2-91.022-62.578l-11.378-5.689c-22.756 0-39.822-22.756-45.511-45.511 0 0-5.689-17.067-5.689-62.578s5.689-62.578 5.689-62.578c5.689-22.756 22.756-39.822 45.511-45.511l11.378-5.689c34.133-11.378 68.267-34.133 91.022-68.267s22.756-73.956 17.067-113.778l-5.689-11.378c-5.689-17.067 0-45.511 17.067-62.578 0 0 17.067-11.378 56.889-34.133s56.889-28.444 56.889-28.444c22.756-5.689 45.511 0 62.578 17.067l11.378 11.378c28.444 28.444 62.578 39.822 108.089 39.822 39.822 0 79.644-17.067 108.089-39.822l11.378-11.378c17.067-17.067 39.822-22.756 62.578-17.067 0 0 17.067 5.689 56.889 28.444s56.889 34.133 56.889 34.133 22.756 39.822 17.067 62.578l-5.689 17.067c-11.378 34.133-5.689 73.956 17.067 108.089s51.2 56.889 91.022 68.267l17.067 5.689c22.756 5.689 39.822 22.756 45.511 45.511 0 0 5.689 17.067 5.689 62.578-5.689 45.511-11.378 62.578-11.378 62.578z"  horiz-adv-x="1024" />

    
    <glyph glyph-name="cybt" unicode="&#58915;" d="M39.253 676.571c135.033-118.154 286.945-191.297 478.242-191.297s343.209 73.143 478.242 185.67v-703.297c0-39.385-33.758-73.143-73.143-73.143H112.396c-39.385 0-73.143 33.758-73.143 73.143V676.57z m933.978 106.902c-123.78-123.78-264.44-202.549-455.736-202.549S179.913 659.693 56.132 789.1C44.879 800.353 33.627 817.232 33.627 839.737v5.626c0 39.385 22.505 45.011 61.89 45.011h810.198c39.385 0 84.396-5.626 84.396-45.011V834.11c5.626-22.505 0-39.385-16.879-50.637zM601.89 288.352l78.769 78.769c11.253 16.879 5.626 39.385-11.253 50.637s-39.385 5.626-56.264-11.253L506.241 293.978 399.34 406.505c-11.253 16.879-33.758 22.505-56.264 5.626-16.879-11.253-22.505-33.758-5.626-50.637l84.396-78.769h-90.022c-22.505 0-39.385-16.879-39.385-39.385s16.879-33.758 39.385-33.758h135.033v-56.264H354.33c-22.505 0-39.385-16.879-39.385-39.385s16.879-39.385 39.385-39.385h112.527l-5.626-95.648c0-22.505 16.879-39.385 39.385-39.385s39.385 16.879 39.385 39.385l5.626 95.648h95.648c22.505 0 39.385 16.879 39.385 39.385s-16.879 39.385-39.385 39.385h-95.648v56.264h146.286c22.505 0 39.385 16.879 39.385 39.385s-16.879 39.385-39.385 39.385h-90.022z"  horiz-adv-x="1024" />

    
    <glyph glyph-name="cssy" unicode="&#58916;" d="M142.222-59.733S147.911-128 187.733-128h705.422c45.511 0 45.511 68.267 45.511 68.267l68.267 415.289H73.955l68.267-415.289z m551.822 273.066c0 22.756 17.067 45.511 39.822 45.511s39.822-22.756 39.822-45.511v-182.044c0-22.756-17.067-45.511-39.822-45.511s-39.822 22.756-39.822 45.511V213.333z m-187.733 0c0 22.756 17.067 45.511 39.822 45.511s39.822-22.756 39.822-45.511v-182.044c0-22.756-17.067-45.511-39.822-45.511s-39.822 22.756-39.822 45.511V213.333z m-193.422 0c0 22.756 17.067 45.511 39.822 45.511s45.511-22.756 45.511-45.511v-182.044c0-28.444-22.756-45.511-39.822-45.511s-39.822 22.756-39.822 45.511V213.333zM1046.756 577.422H34.134C17.067 577.422 0.001 560.355 0.001 537.6v-85.333c0-17.067 11.378-34.133 22.756-39.822h1041.067c11.378 5.689 22.756 22.756 22.756 39.822V537.6c0 22.756-17.067 39.822-39.822 39.822zM540.444 827.733c130.844 0 238.933-96.711 284.444-227.556h62.578C841.955 770.844 705.422 895.999 540.444 895.999c-159.289 0-295.822-125.156-341.333-295.822h62.578c39.822 130.844 153.6 227.556 278.756 227.556z"  horiz-adv-x="1138" />

    
    <glyph glyph-name="awm" unicode="&#58917;" d="M490.598 777.466c-3.293 52.682-46.096 95.486-102.071 102.071H131.704c-62.559 0-111.949-46.096-115.241-105.363v-263.408c0-3.293 0-6.585 3.293-9.878 9.878-52.682 59.267-92.193 115.241-92.193h260.116c49.389 6.585 92.193 42.804 98.778 92.193 0 3.293 3.293 6.585 3.293 9.878V774.174l-6.585 3.293z m-72.437-13.17v-240.36c0-26.341-23.048-46.096-49.389-46.096H134.997c-26.341 0-49.389 19.756-49.389 46.096v240.36c0 26.341 23.048 46.096 49.389 46.096h233.775c26.341 0 49.389-19.756 49.389-46.096zM592.669 349.428c-23.048 0-42.804-19.756-42.804-39.511V-65.44c0-23.048 19.756-39.511 42.804-39.511s42.804 19.756 42.804 39.511V306.624c0 26.341-19.756 42.804-42.804 42.804zM391.82 349.428H125.119c-59.267 0-108.656-46.096-111.949-105.363v-256.823c0-3.293 0-6.585 3.293-9.878 9.878-52.682 55.974-92.193 111.949-92.193h266.701c49.389 6.585 88.9 42.804 95.486 88.9 0 3.293 3.293 6.585 3.293 13.17V244.064c-6.585 55.974-46.096 98.778-102.071 105.363z m26.341-115.242v-233.775c0-23.048-19.756-46.096-46.096-46.096h-240.36c-26.341 0-46.096 19.756-46.096 46.096V234.186c0 23.048 19.756 46.096 46.096 46.096h240.36c26.341 0 46.096-19.756 46.096-46.096zM951.563 349.428c-23.048 0-42.804-19.756-42.804-39.511v-105.363c0-23.048 19.756-39.511 42.804-39.511s42.804 19.756 42.804 39.511V309.917c0 23.048-19.756 39.511-42.804 39.511zM908.759 879.537H651.936c-59.267 0-108.656-46.096-115.241-105.363V504.18c0-3.293 0-6.585 3.293-9.878 9.878-52.682 55.974-92.193 111.949-92.193H908.76c49.389 6.585 88.9 42.804 95.486 88.9 0 3.293 3.293 6.585 3.293 9.878V777.466c-3.293 52.682-42.804 95.486-98.778 102.071zM935.1 767.588v-243.653c0-23.048-19.756-46.096-46.096-46.096H658.522c-26.341 0-46.096 19.756-46.096 46.096V767.588c0 23.048 19.756 46.096 46.096 46.096h230.482c26.341-3.293 46.096-23.048 46.096-46.096zM773.762 349.428c-23.048 0-42.804-19.756-42.804-39.511v-372.064c0-23.048 19.756-39.511 42.804-39.511s42.804 19.756 42.804 39.511V309.917c0 23.048-19.756 39.511-42.804 39.511zM951.563 115.653c-23.048 0-42.804-19.756-42.804-39.511V-65.44c0-23.048 19.756-39.511 42.804-39.511s42.804 19.756 42.804 39.511V76.142c0 19.756-19.756 39.511-42.804 39.511z"  horiz-adv-x="1024" />

    
    <glyph glyph-name="yh" unicode="&#58918;" d="M512 876.495C238.933 876.495 19.505 657.066 19.505 384S238.934-108.495 512-108.495 1004.495 110.934 1004.495 384 785.066 876.495 512 876.495zM238.933 52.419C273.066 174.324 380.343 262.095 512 262.095s238.933-87.771 273.067-209.676c-73.143-58.514-165.79-92.648-268.19-92.648-107.276-9.752-204.8 29.257-277.943 92.648zM370.59 457.143c0 78.019 63.39 136.533 136.533 136.533 78.019 0 136.533-63.39 136.533-136.533S580.266 320.61 507.123 320.61c-73.143 0-136.533 63.39-136.533 136.533z m463.239-365.714c-34.133 97.524-107.276 170.667-204.8 204.8 48.762 34.133 78.019 92.648 78.019 160.914 0 112.152-87.771 199.924-199.924 199.924-107.276 0-199.924-87.771-199.924-199.924 0-63.39 34.133-121.905 78.019-160.914-92.648-34.133-165.79-107.276-199.924-199.924-68.267 78.019-107.276 175.543-107.276 282.819C78.019 618.057 273.067 813.105 512 813.105s433.981-195.048 433.981-433.981c0-107.276-43.886-209.676-112.152-287.695z"  horiz-adv-x="1024" />

    
    <glyph glyph-name="ydgl" unicode="&#58919;" d="M803.574892 19.911856l51.19995-56.888945c22.755978-22.755978 22.755978-51.19995 0-73.955928s-51.19995-22.755978-73.955928 0l-68.266933 73.955928c-136.532867-68.266933-295.821711-68.266933-432.355578 0-51.19995-51.19995-79.643922-73.955928-79.643922-73.955928-22.755978-22.755978-51.19995-22.755978-73.955928 0s-22.755978 51.19995 0 73.955928l62.577939 62.577939-51.19995 51.19995C-21.314303 270.222611 1.441675 566.044322 200.552481 736.711156s489.243522 142.221861 659.910355-51.19995c164.977839-199.110806 142.221861-494.932517-56.888944-665.59935zM502.064186 372.622511V651.378239c0 22.755978-17.066983 39.821961-39.821961 39.821961s-39.821961-17.066983-39.821961-39.821961v-364.088645h290.132717c22.755978 0 39.821961 17.066983 39.821961 39.821962s-17.066983 39.821961-39.821961 39.821961H502.064186zM137.975542 793.6001c-22.755978-28.443972-45.510956-56.888944-62.577939-85.332917-11.377989 5.688994-17.066983 17.066983-28.443972 22.755978C12.820664 776.534117 24.197653 839.112056 69.709608 873.245022S183.487497 896.001 211.931469 850.489044c-22.755978-11.377989-51.19995-34.132967-73.955927-56.888944z m705.421311 0C820.640875 816.356078 797.885897 839.111056 769.440925 850.489044 803.573892 896 866.151831 907.377989 911.662786 873.245022s56.888944-96.710906 22.755978-142.221861c-5.688994-11.377989-17.066983-17.066983-22.755978-22.755978-17.066983 28.443972-39.821961 56.888944-68.266933 85.332917z"  horiz-adv-x="1024" />

    
    <glyph glyph-name="jxc" unicode="&#58920;" d="M938.667 184.889c-17.067 5.689-34.133 5.689-51.2 0L540.445 36.978c-17.067-5.689-34.133-5.689-51.2 0L147.912 184.889c-17.067 5.689-34.133 5.689-51.2 0l-68.267-28.444C5.689 145.067-5.688 116.623 5.689 99.556c5.689-11.378 11.378-17.067 22.756-22.756l455.111-199.111c17.067-5.689 34.133-5.689 51.2 0l460.8 199.111c22.756 11.378 34.133 34.133 22.756 56.889-5.689 11.378-11.378 17.067-22.756 22.756l-56.889 28.444z m0 256c-17.067 5.689-34.133 5.689-51.2 0L540.445 292.978c-17.067-5.689-34.133-5.689-51.2 0L147.912 440.889c-17.067 5.689-34.133 5.689-51.2 0l-68.267-28.444C5.689 401.067-5.688 372.623 5.689 355.556c5.689-11.378 11.378-17.067 22.756-22.756l455.111-199.111c17.067-5.689 34.133-5.689 51.2 0l460.8 199.111c22.756 11.378 34.133 34.133 22.756 56.889-5.689 11.378-11.378 17.067-22.756 22.756l-56.889 28.444zM540.444 890.311c-17.067 5.689-34.133 5.689-51.2 0L34.133 696.889C5.689 685.511-5.689 651.378 5.689 628.622c5.689-11.378 17.067-17.067 28.444-22.756l455.111-193.422c17.067-5.689 34.133-5.689 51.2 0l455.111 193.422c28.444 11.378 39.822 45.511 28.444 68.267-5.689 11.378-17.067 17.067-28.444 22.756L540.444 890.311z"  horiz-adv-x="1030" />

    
    <glyph glyph-name="zzmd" unicode="&#58921;" d="M869.198993 217.298636c35.720344 0 71.440688 11.906781 95.254251 35.720345 0 0 5.953885 0 5.953885-5.953885v-285.763742c0-47.627125-29.767448-89.301354-77.394573-89.301354H154.788158c-41.674229 0-77.394573 41.674229-77.394573 89.301354V241.112199c0 5.953885 5.953885 5.953885 5.953885 5.953885 29.767448-23.813563 65.487792-29.767448 101.208135-29.767448 53.58101 0 113.114917 23.813563 172.648824 65.487792h5.953885c53.58101-35.720344 113.114917-71.440688 172.648824-71.440688 29.767448 0 59.533907 5.953885 89.301355 23.813563 23.813563 11.906781 41.674229 29.767448 65.487792 53.58101h5.953884c71.440688-47.627125 125.021699-71.440688 172.648824-71.440688z m202.416272 297.671511c0-5.953885 0-35.720344-11.906781-65.487791-23.813563-47.627125-47.627125-83.34747-77.394573-107.162021s-65.487792-35.720344-101.208136-35.720344c-47.627125 0-101.208136 23.813563-166.695928 65.487792-5.953885 5.953885-11.906781 0-17.860666 0-17.860666-17.860666-35.720344-35.720344-59.533907-47.627126-29.767448-17.860666-59.533907-23.813563-89.301354-23.813563-59.533907 0-119.068802 35.720344-166.695928 71.440689-5.953885 5.953885-11.906781 5.953885-11.906781 0-59.533907-41.674229-119.068802-59.533907-166.695928-59.533907s-89.301354 17.860666-125.021698 47.627125c-29.767448 29.767448-47.627125 59.533907-59.533907 83.34747s-11.906781 65.487792-5.953885 95.254251c0 5.953885 11.906781 41.674229 23.813563 71.440688 17.860666 53.58101 71.440688 148.835261 107.16202 220.276938 29.767448 53.58101 65.487792 65.487792 89.301355 65.487792h637.016262c23.813563 0 59.533907-11.906781 83.34747-65.487792 11.906781-23.813563 23.813563-53.58101 41.674229-83.34747 29.767448-59.533907 65.487792-130.975583 77.394573-172.648824v-59.533907z m-220.275949 29.76646c17.860666 0 29.767448 11.906781 29.767447 29.767447s-11.906781 29.767448-29.767447 29.767448H220.276938c-17.860666 0-29.767448-11.906781-29.767448-29.767448s11.906781-29.767448 29.767448-29.767447h631.062378z"  horiz-adv-x="1084" />

    
    <glyph glyph-name="jyjf" unicode="&#58922;" d="M142.278 896h711.111c62.578 0 113.778-51.2 113.778-113.778v-768c0-62.578-51.2-113.778-113.778-113.778H142.278C79.7-99.556 28.5-48.356 28.5 14.222v768C28.5 844.8 79.7 896 142.278 896z m432.355-540.444L694.1 486.4c11.378 17.067 11.378 34.133 0 51.2s-34.133 11.378-51.2 0L512.056 389.689 352.767 537.6c-11.378 11.378-34.133 11.378-51.2 0-11.378-11.378-11.378-34.133 0-51.2L438.1 355.556H335.7c-17.067 0-34.133-17.067-34.133-34.133s17.067-34.133 34.133-34.133h125.156v-56.889H335.7c-17.067 0-34.133-17.067-34.133-34.133s17.067-34.133 34.133-34.133h125.156v-153.6h68.267v153.6h130.844c17.067 0 34.133 17.067 34.133 34.133s-17.067 34.133-34.133 34.133H529.123V287.29h130.844c17.067 0 34.133 17.067 34.133 34.133s-17.067 34.133-34.133 34.133h-85.333zM307.256 776.533c0-85.333 85.333-147.911 193.422-147.911S694.1 691.2 694.1 776.533c0 17.067-11.378 28.444-28.444 28.444s-28.444-11.378-28.444-28.444c0-45.511-56.889-85.333-130.844-85.333s-130.844 39.822-130.844 85.333c0 17.067-11.378 28.444-28.444 28.444-28.444 5.689-39.822-11.378-39.822-28.444z"  horiz-adv-x="1024" />

    
    <glyph glyph-name="lxxy" unicode="&#58923;" d="M822.843836 274.113209c56.07176-30.584596 91.753789-91.753789 91.753789-163.117846v-15.292298c0-40.779462-25.487164-76.461491-61.169193-96.851222l-127.435817-61.169192-101.948655-45.876895c-56.07176-25.487164-117.240952-25.487164-178.410144-5.097433L308.003132-67.414782 185.664747-21.537888c-40.779462 15.292298-66.266625 56.07176-66.266625 96.851222v35.682029c0 61.169193 30.584596 112.14352 76.461491 147.825548V427.036191v15.292298C78.61866 421.938758 37.839199 523.887412 27.644333 569.764307c0 5.097433 5.097433 10.194865 10.194866 10.194865 45.876894-35.682029 91.753789-35.682029 117.240952-35.682029s56.07176-5.097433 66.266625-10.194865c10.194865 25.487164 30.584596 50.974327 50.974327 71.364058C109.203257 737.979586 216.249344 855.220538 262.126238 890.902567c5.097433 5.097433 15.292298 0 15.292298-10.194865-10.194865-137.630683 91.753789-198.799876 122.338385-214.092174h219.189607c30.584596 15.292298 132.53325 76.461491 122.338385 214.092174 0 10.194865 10.194865 15.292298 15.292298 10.194865 45.876894-35.682029 152.922981-152.922981-10.194866-285.456231 20.389731-20.389731 35.682029-45.876894 50.974328-71.364058 10.194865 0 40.779462 10.194865 61.169192 10.194865s71.364058 0 117.240952 35.682029c5.097433 5.097433 15.292298 0 10.194866-10.194865-10.194865-45.876894-50.974327-147.825549-163.117847-127.435818V274.113209z m-76.461491 152.922982c0 56.07176-45.876894 101.948654-101.948654 101.948654s-101.948654-45.876894-101.948654-101.948654 45.876894-101.948654 101.948654-101.948654c56.07176 0 101.948654 45.876894 101.948654 101.948654z m-254.871635 0c0 56.07176-45.876894 101.948654-101.948654 101.948654s-101.948654-45.876894-101.948654-101.948654 45.876894-101.948654 101.948654-101.948654c56.07176 0 101.948654 45.876894 101.948654 101.948654z m-35.682029-239.579338c0 15.292298-20.389731 25.487164-40.779462 25.487164-25.487164 0-40.779462-10.194865-40.779461-25.487164s20.389731-25.487164 40.779461-25.487163c25.487164 0 40.779462 10.194865 40.779462 25.487163z m214.092174 0c0 15.292298-20.389731 25.487164-40.779462 25.487164s-40.779462-10.194865-40.779462-25.487164c0-15.292298 20.389731-25.487164 40.779462-25.487163s40.779462 10.194865 40.779462 25.487163z m-326.235694-96.851221h-5.097432c-10.194865 0-20.389731-10.194865-20.389731-20.389731 0-15.292298 10.194865-30.584596 25.487163-40.779462l81.558924-35.682029c66.266625-30.584596 142.728116-30.584596 208.994741 0l81.558923 35.682029c15.292298 5.097433 25.487164 20.389731 25.487164 40.779462v5.097433c-5.097433 10.194865-15.292298 15.292298-25.487164 10.194865-61.169193-20.389731-122.338385-30.584596-183.507577-30.584596s-127.435818 15.292298-188.605011 35.682029z m45.876895 259.969068c-40.779462 0-76.461491 35.682029-76.461491 76.461491s35.682029 76.461491 76.461491 76.46149c40.779462 0 76.461491-35.682029 76.46149-76.46149s-35.682029-76.461491-76.46149-76.461491z m45.876894 66.266625c0 15.292298-15.292298 30.584596-30.584596 30.584597s-25.487164-15.292298-25.487164-30.584597S394.659488 386.256729 409.951787 386.256729s25.487164 15.292298 25.487163 30.584596z m203.897309-66.266625c-40.779462 0-76.461491 35.682029-76.461491 76.461491s35.682029 76.461491 76.461491 76.46149c40.779462 0 76.461491-35.682029 76.46149-76.46149s-30.584596-76.461491-76.46149-76.461491z m45.876894 66.266625c0 15.292298-15.292298 30.584596-30.584596 30.584597s-30.584596-15.292298-30.584597-30.584597S639.336259 386.256729 654.628557 386.256729s30.584596 15.292298 30.584596 30.584596z"  horiz-adv-x="1024" />

    
    <glyph glyph-name="kwgl" unicode="&#58924;" d="M132.871 896h854.717c70.56 0 127.76-57.2 127.76-127.76v-88.794H5.11V768.24C5.11 838.8 62.31 896 132.87 896zM5.11 567.017v-511.042c0-70.56 57.2-127.76 127.76-127.76h613.889v5.11c0.756 3.688 1.189 7.928 1.189 12.268 0 11.967-3.291 23.165-9.016 32.739l0.161-0.291c-7.96 14.046-21.033 24.411-36.63 28.649l-0.421 0.097h-7.666c-26.226 6.759-46.245 27.632-51.664 53.843l-0.079 0.455c-0.619 6.889-0.971 14.902-0.971 22.997s0.353 16.108 1.043 24.024l-0.072-1.027c-0.626 6.984-0.982 15.109-0.982 23.316s0.357 16.332 1.055 24.358l-0.073-1.042c5.745 26.745 25.969 47.609 51.891 54.193l0.49 0.106h8.943c25.628 8.701 43.74 32.546 43.74 60.622a64.1 64.1 0 0 1-1.664 14.549l0.085-0.432v7.027c-2.688 7.188-4.244 15.493-4.244 24.162 0 21.459 9.533 40.692 24.594 53.695l0.091 0.077c11.538 9.056 24.5 17.529 38.171 24.851l1.434 0.702c11.602 6.976 25.257 13.831 39.433 19.679l2.089 0.763c6.765 2.314 14.559 3.651 22.665 3.651 19.812 0 37.759-7.981 50.802-20.904l-0.005 0.005 6.388-7.027c11.668-9.81 26.857-15.769 43.439-15.769s31.77 5.96 43.542 15.854l-0.104-0.085 7.666 7.027c12.758 12.976 30.499 21.017 50.119 21.017 8.129 0 15.935-1.38 23.197-3.919l-0.493 0.15 21.719-9.582V567.018z m306.625-501.46H191.64c-26.46 0-47.91 21.45-47.91 47.91s21.45 47.91 47.91 47.91h120.095c26.46 0 47.91-21.45 47.91-47.91s-21.45-47.91-47.91-47.91zM453.55 249.532H191.641c-26.46 0-47.91 21.45-47.91 47.91s21.45 47.91 47.91 47.91H453.55c26.46 0 47.91-21.45 47.91-47.91s-21.45-47.91-47.91-47.91zM1202.865 176.07h-8.304c-21.041 6.656-38.193 20.491-48.968 38.569l-0.22 0.398c-7.427 12.075-11.827 26.703-11.827 42.358a81.855 81.855 0 0 0 3.021 22.098l-0.138-0.575v7.666c1 3.141 1.576 6.753 1.576 10.5a35.64 35.64 0 0 1-9.268 24.025l0.027-0.03c-8.866 6.743-18.888 13.298-29.364 19.138l-1.299 0.665c-9.292 5.814-20.025 11.185-31.27 15.526l-1.309 0.444c-3.183 1.117-6.854 1.762-10.675 1.762-9.339 0-17.778-3.854-23.813-10.059l-0.007-0.008-5.749-6.388c-15.248-13.87-35.601-22.362-57.939-22.362-0.292 0-0.584 0.001-0.876 0.004h0.045c-0.19-0.002-0.415-0.002-0.64-0.002-22.509 0-42.973 8.753-58.175 23.041l0.044-0.041-5.749 5.749c-6.132 6.161-14.619 9.973-23.997 9.973a33.83 33.83 0 0 1-10.737-1.738l0.239 0.069c-12.696-5.061-23.415-10.421-33.62-16.55l1.041 0.58c-22.358-13.415-30.663-19.803-30.663-19.803-6.661-6.2-10.814-15.018-10.814-24.806a33.9 33.9 0 0 1 1.29-9.29l-0.058 0.239v-8.304c1.268-5.522 1.995-11.863 1.995-18.374 0-38.416-25.307-70.922-60.159-81.755l-0.606-0.162h-8.304c-12.058-3.551-21.362-12.855-24.848-24.656l-0.065-0.258c-0.461-5.452-0.724-11.798-0.724-18.206s0.263-12.754 0.778-19.029l-0.054 0.824c-0.455-5.356-0.715-11.591-0.715-17.886s0.259-12.53 0.768-18.694l-0.054 0.808c3.121-12.451 12.58-22.122 24.666-25.493l0.247-0.059h7.666c21.442-6.21 38.932-20.166 49.612-38.566l0.215-0.401c7.488-11.995 11.928-26.561 11.928-42.165a80.56 80.56 0 0 0-3.124-22.284l0.14 0.568v-8.304c-0.797-2.683-1.255-5.765-1.255-8.955 0-9.623 4.173-18.272 10.807-24.236l0.03-0.026c8.909-6.884 18.937-13.445 29.466-19.204l1.196-0.599c8.758-5.225 19.45-10.774 30.455-15.75l2.124-0.859c2.988-0.901 6.422-1.419 9.977-1.419 9.498 0 18.131 3.701 24.536 9.74l-0.018-0.017 5.749 5.749c15.262 14.567 35.959 23.556 58.754 23.636h0.242c22.752 0 43.4-9.011 58.569-23.66l5.725-5.725a36.263 36.263 0 0 1 24.69-9.65 36.43 36.43 0 0 1 10.062 1.408l-0.257-0.063c12.797 5.469 23.498 11.026 33.738 17.265l-1.159-0.656c11.76 6.15 21.793 12.508 31.255 19.588l-0.592-0.424c6.852 6.529 11.113 15.725 11.113 25.915 0 2.816-0.325 5.555-0.94 8.183l0.048-0.242v8.304c-1.928 6.536-3.037 14.044-3.037 21.812 0 15.578 4.461 30.114 12.175 42.401l-0.195-0.333c10.894 18.801 28.385 32.757 49.235 38.82l0.591 0.147h8.304c12.069 3.625 21.264 13.243 24.225 25.311l0.05 0.241c0.455 5.356 0.715 11.591 0.715 17.886s-0.259 12.53-0.768 18.694l0.054-0.808c0.461 5.452 0.724 11.798 0.724 18.206s-0.263 12.754-0.778 19.029l0.054-0.824c-4.391 11.58-14.404 20.109-26.615 22.326l-0.214 0.032zM966.508 20.202c-51.662 0.72-93.265 42.769-93.265 94.534 0 52.215 42.328 94.543 94.543 94.543 52.211 0 94.538-42.323 94.543-94.534-0.361-52.293-42.836-94.545-95.179-94.545l-0.675 0.002h0.035z"  horiz-adv-x="1230" />

    
    <glyph glyph-name="mm" unicode="&#58925;" d="M522.8925 124.732v-76.255c0-13.072-8.715-21.787-21.787-21.787s-21.787 8.715-21.787 21.787v76.255c-56.647 10.894-98.043 58.826-98.043 117.651 0 65.362 54.468 119.83 119.83 119.83s119.83-54.468 119.83-119.83c0-58.826-41.396-106.757-98.043-117.651zM226.5865 536.511v63.183C226.5865 763.098 359.4885 896 522.8925 896c126.366 0 237.481-80.613 278.877-196.085 4.357-10.894-2.179-23.966-13.072-28.323s-23.966 2.179-28.323 13.072C725.5145 784.885 629.6515 852.426 522.8935 852.426c-139.438 0-252.732-113.294-252.732-252.732v-84.97c0-13.072-8.715-21.787-21.787-21.787h-63.182c-37.038 0-65.362-28.323-65.362-65.362V-8.17c0-37.038 28.323-65.362 65.362-65.362h653.617c37.038 0 65.362 28.323 65.362 65.362V427.575c0 37.038-28.323 65.362-65.362 65.362H383.4565c-13.072 0-21.787 8.715-21.787 21.787s8.715 21.787 21.787 21.787h455.353c61.004 0 108.936-47.932 108.936-108.936V-8.17c0-61.004-47.932-108.936-108.936-108.936H185.1925C124.1885-117.106 76.2565-69.174 76.2565-8.17V427.575c0 61.004 47.932 108.936 108.936 108.936h41.396z m274.519-370.383c41.396 0 76.255 34.86 76.255 76.255s-34.86 76.255-76.255 76.255-76.255-32.681-76.255-76.255 34.86-76.255 76.255-76.255z"  horiz-adv-x="1024" />

    
    <glyph glyph-name="sy" unicode="&#58926;" d="M1023.998 423.822922c0 11.377978-5.688989 22.755956-11.377978 28.443945L574.576878 873.244044c-34.132933 28.443944-79.643844 28.443944-108.088789 0L22.755956 452.266867c-17.066967-17.066967-17.066967-39.821922 0-56.888889s39.821922-17.066967 56.888888-5.688989c0 0 5.688989 0 5.688989-5.688989v-432.355156c0-22.755956 11.377978-45.510911 22.755956-56.888888 17.066967-17.066967 34.132933-22.755956 56.888889-22.755956h221.866566c11.377978 0 17.066967 5.688989 17.066967 17.066967V122.310511c0 17.066967 5.688989 28.443944 17.066967 39.821922s28.443944 17.066967 39.821922 17.066967H574.578878c17.066967 0 28.443944-5.688989 39.821922-17.066967s17.066967-28.443944 17.066967-39.821922v-233.243544c0-11.377978 5.688989-17.066967 17.066966-17.066967h227.555556c22.755956 0 45.510911 11.377978 56.888889 22.755956 17.066967 17.066967 22.755956 34.132933 22.755955 56.888888V384c0 5.688989 5.688989 5.688989 5.688989 5.688989 17.066967-11.377978 39.821922-5.688989 51.1999 5.688989 5.688989 5.688989 11.377978 17.066967 11.377978 28.443944z"  horiz-adv-x="1024" />

    
    <glyph glyph-name="rq" unicode="&#58927;" d="M512-128C230.4-128 0 102.4 0 384S230.4 896 512 896s512-230.4 512-512-230.4-512-512-512z m0 85.333c238.933 0 426.667 187.733 426.667 426.667S750.934 810.667 512 810.667 85.333 622.934 85.333 384 273.066-42.667 512-42.667z m42.667 358.4l128-93.867c17.067-17.067 25.6-42.667 8.533-59.733s-42.667-25.6-59.733-8.533L469.334 273.067V640c0 25.6 17.067 42.667 42.667 42.667S554.668 665.6 554.668 640v-324.267z"  horiz-adv-x="1024" />

    
    <glyph glyph-name="bz" unicode="&#58928;" d="M846.1485 896c53.895 0 97.011-43.116 97.011-97.011v-695.242c0-53.895-43.116-97.011-97.011-97.011H673.6855c-10.779 0-26.947-5.389-32.337-16.168l-97.011-97.011c-10.779-10.779-21.558-16.168-32.337-16.168s-26.947 5.389-32.337 16.168l-97.011 97.011c-10.779 10.779-21.558 16.168-32.337 16.168H177.8525c-53.895 0-97.011 43.116-97.011 97.011V798.989c0 26.947 10.779 53.895 26.947 70.063S150.9045 895.999 177.8515 895.999h668.295zM506.6115 249.263c-16.168 0-26.947-5.389-37.726-16.168s-16.168-21.558-16.168-37.726 5.389-26.947 16.168-37.726 21.558-16.168 37.726-16.168 26.947 5.389 37.726 16.168 16.168 21.558 16.168 37.726-5.389 26.947-16.168 37.726-21.558 16.168-37.726 16.168z m16.169 431.158c-48.505 0-91.621-16.168-118.568-48.505-37.726-32.337-48.505-75.453-48.505-129.347h75.453c0 32.337 5.389 59.284 21.558 75.453 16.168 21.558 37.726 32.337 70.063 32.337 26.947 0 43.116-5.389 59.284-21.558s21.558-37.726 21.558-59.284-5.389-37.726-21.558-53.895l-16.168-16.168c-43.116-43.116-70.063-75.453-80.842-97.011-10.779-16.168-10.779-43.116-10.779-70.063v-10.779h75.453V292.38c0 16.168 5.389 32.337 10.779 48.505s16.168 26.947 32.337 37.726c37.726 32.337 53.895 48.505 59.284 59.284 21.558 21.558 26.947 53.895 26.947 91.621 0 43.116-16.168 80.842-43.116 107.789-32.337 32.337-70.063 43.116-113.179 43.116z"  horiz-adv-x="1024" />

    
    <glyph glyph-name="slf" unicode="&#58929;" d="M507.124 335.238c-107.276 0-195.048 92.648-195.048 204.8s87.771 204.8 195.048 204.8c107.276 0 195.048-92.648 195.048-204.8s-87.771-204.8-195.048-204.8zM151.162 110.933C224.305 193.828 409.6 242.59 512 242.59s282.819-43.886 360.838-131.657C765.562 52.419 643.657 18.285 512 18.285s-253.562 34.133-360.838 92.648z m824.076-73.143c0 14.629 9.752 24.381 24.381 24.381S1024 52.419 1024 37.79v-141.41c0-14.629-9.752-24.381-24.381-24.381H853.333c-14.629 0-24.381 9.752-24.381 24.381s9.752 24.381 24.381 24.381h121.905V37.79zM170.667-79.238c14.629 0 24.381-9.752 24.381-24.381S185.296-128 170.667-128H24.381C9.752-128 0-118.248 0-103.619V42.667c0 14.629 9.752 24.381 24.381 24.381s24.381-9.752 24.381-24.381v-121.905h121.905zM48.762 725.333c0-14.629-9.752-24.381-24.381-24.381S0 710.704 0 725.333V871.619C0 886.248 9.752 896 24.381 896h146.286c14.629 0 24.381-9.752 24.381-24.381s-9.752-24.381-24.381-24.381H48.762v-121.905zM853.333 847.238c-14.629 0-24.381 9.752-24.381 24.381S838.704 896 853.333 896h146.286C1014.248 896 1024 886.248 1024 871.619v-146.286c0-14.629-9.752-24.381-24.381-24.381s-24.381 9.752-24.381 24.381V847.238H853.333z"  horiz-adv-x="1025" />

    
    <glyph glyph-name="cpgl" unicode="&#58930;" d="M359.578637 726.276243c-45.259669 0-84.861878 39.60221-84.861878 84.861879S314.318969 896 359.578637 896h299.845304c45.259669 0 84.861878-39.60221 84.861879-84.861878s-39.60221-84.861878-84.861879-84.861879H359.578637zM964.926703 454.718232v-463.911602c0-67.889503-50.917127-118.80663-118.806629-118.80663H172.882505c-67.889503 0-118.80663 50.917127-118.80663 118.80663V658.38674C54.075875 726.276243 104.993002 777.19337 172.882505 777.19337h33.944751C212.484715 703.646409 269.0593 647.071823 342.606262 647.071823h333.790055c73.546961 0 135.779006 56.574586 135.779005 130.121547h28.287293c62.232044 0 118.80663-56.574586 118.80663-118.80663l5.657458-203.668508z m-198.011049-79.20442c5.657459 5.657459 11.314917 16.972376 11.314917 28.287293 0 22.629834-22.629834 45.259669-45.259669 45.259668-11.314917 0-22.629834-5.657459-33.944751-11.314917l-248.928177-243.270718L342.606262 301.966851c-5.657459 5.657459-16.972376 11.314917-28.287293 11.314917-22.629834 0-45.259669-22.629834-45.259669-45.259669 0-11.314917 5.657459-16.972376 11.314917-28.287292l175.381216-169.723757 311.160221 305.502762z"  horiz-adv-x="1024" />

    
    <glyph glyph-name="slf1" unicode="&#58931;" d="M334.147 437.895c-21.558 0-37.726 16.168-37.726 37.726v59.284c-5.389 21.558 16.168 37.726 37.726 37.726h5.389c21.558 0 37.726-16.168 37.726-37.726v-59.284c0-21.558-16.168-37.726-37.726-37.726h-5.389z m339.537 0c-21.558 0-37.726 16.168-37.726 37.726v59.284c0 21.558 16.168 37.726 37.726 37.726h5.389c21.558 0 37.726-16.168 37.726-37.726v-59.284c0-21.558-16.168-37.726-37.726-37.726h-5.389zM253.305-20.211000000000013c16.168 0 32.337-16.168 32.337-32.337s-16.168-32.337-32.337-32.337H134.737c-53.895 0-97.011 43.116-97.011 97.011V125.30499999999995c0 21.558 16.168 32.337 32.337 32.337s37.726-16.168 37.726-32.337v-107.789c0-21.558 16.168-37.726 37.726-37.726h107.789z m0 878.485c16.168 0 32.337-16.168 32.337-32.337 0-21.558-16.168-37.726-32.337-37.726H145.516c-21.558 0-37.726-16.168-37.726-37.726v-107.789c0-16.168-16.168-32.337-37.726-32.337s-32.337 16.168-32.337 37.726V761.264c0 53.895 43.116 97.011 97.011 97.011h118.568z m695.242-700.632c21.558 0 32.337-16.168 32.337-32.337v-113.179c0-53.895-43.116-97.011-97.011-97.011H765.305c-16.168 0-32.337 16.168-32.337 32.337s16.168 32.337 32.337 32.337h102.4c21.558 0 37.726 16.168 37.726 37.726V125.30399999999997c10.779 16.168 26.947 32.337 43.116 32.337zM889.263 858.274c53.895 0 97.011-43.116 97.011-97.011v-113.179c0-21.558-16.168-32.337-32.337-32.337-21.558-5.389-37.726 10.779-37.726 32.337V755.873c0 16.168-16.168 32.337-37.726 32.337h-102.4c-16.168 0-32.337 16.168-32.337 32.337s16.168 32.337 32.337 32.337h113.179z m-598.231-619.79c-5.389 16.168 5.389 37.726 26.947 43.116 16.168 5.389 37.726-5.389 43.116-26.947 10.779-64.674 75.453-113.179 145.516-113.179s129.347 48.505 150.905 118.568c5.389 16.168 21.558 32.337 43.116 26.947s32.337-21.558 26.947-43.116C700.632 146.86199999999997 614.4 76.79899999999998 512 76.79899999999998c-107.789-5.389-199.411 64.674-220.968 161.684z"  horiz-adv-x="1024" />

    


  </font>
</defs>
</svg>
